Patient4_TMGait_0pt7_01_left_08_EMG.mot
version=1
nRows=36
nColumns=33
inDegrees=no
endheader
time	1LAddLong	2LGlutMax	3LGlutMed	4LIliopsoas	5LSemiMemb	6LBicFemLong	7LRecFem	8LVastMed	9LVastLat	10LGasMed	11LTibAnt	12lTibPost	13LPeroneusLong	14LSol	15LExtDigLong	16LFlexDigLong	17RAddLong	18RGlutMax	19RGlutMed	20RIliopsoas	21RSemiMemb	22RBicFemLong	23RRecFem	24RVastMed	25RVastLat	26RGasMed	27RTibAnt	28RTibPost	29RPeroneusLong	30RSol	31RExtDigLong	32RFlexDigLong
10.403	0.028381	-0.14755	0.009918	0	-0.003662	-0.014191	-0.10361	0.003815	0.15656	-0.065613	0.031281	-0.001526	0.044708	0.081635	0.02182	-0.008087	-0.00885	-0.34317	0.12619	0.099792	-0.021057	-0.083466	0.29984	0.17303	0.030975	0.007477	-0.24521	-0.015106	0.52536	-0.083313	-0.000763	0.007935
10.404	0.028992	-0.10666	-0.002289	0.012665	-0.020447	0.027313	-0.10635	0.002594	0.14984	-0.026398	0.00824	-0.002136	0.048523	-0.006714	-0.023499	-0.006104	-0.012207	-0.37186	0.1857	0.048828	-0.02594	-0.069275	0.086365	0.16846	0.024719	0.016174	-0.28656	-0.014343	-0.11292	0.29556	-0.00473	0.000458
10.405	0.025635	-0.066833	-0.011749	0.015869	0.001068	0.010681	-0.098724	0.007324	0.12802	0.000305	0.049896	-0.003204	0.020294	-0.077972	-0.046234	0	-0.016785	-0.30136	0.40054	-0.020599	0.002747	-0.07309	-0.44006	0.3392	0.013885	0.023956	-0.048218	-0.018311	-0.72174	0.30823	-0.002136	-0.007019
10.406	0.029755	-0.043793	-0.034332	0.010834	0.005646	-0.003967	-0.1091	0.005646	0.12238	0.014038	0.016632	-0.00061	0.026093	-0.016785	-0.077972	0.006714	-0.004578	-0.2478	0.34409	-0.007324	0.024261	-0.10834	-0.44281	0.4071	0.042877	0.019531	-0.024261	-0.02121	-0.035706	0.018768	-0.000458	-0.00946
10.407	0.023956	-0.047455	-0.031433	0.010986	-0.007324	-0.008087	-0.10452	0.000916	0.1294	-0.000458	-0.023956	0.000916	0.037994	0.033722	-0.065765	0.010223	0.005951	-0.24933	0.45944	0.01297	0.016937	-0.11566	-0.30365	0.14999	0.023346	0.019073	-0.012512	-0.014191	0.46173	-0.57983	-0.002136	-0.014801
10.408	0.017853	-0.050812	-0.04776	-0.001526	-0.010223	0.007629	-0.10529	0.00351	0.13473	-0.010834	0.058289	-0.003357	-0.006561	-0.029602	0.014496	0.008698	-0.003815	-0.31998	0.34103	0.019684	-0.071869	-0.072632	-0.46951	-0.13321	-0.028839	-0.004578	-0.001831	-0.013733	0.042725	-0.81726	-0.001373	-0.002899
10.409	0.027466	-0.062714	-0.093689	0.028381	-0.035095	0.037079	-0.10544	0.008545	0.12436	-0.002289	0.061493	-0.011444	0.007935	-0.018311	0.061951	0.002899	-0.005341	-0.34897	0.17273	0.008392	-0.062714	-0.042419	-0.49393	-0.10452	0.031128	-0.007782	0.035553	-0.014038	-0.07782	-0.97305	-0.004883	0.002289
10.41	0.016937	-0.044098	-0.11948	0.013428	-0.082855	0.041046	-0.11688	0.006256	0.12222	-0.027008	-0.022736	-0.016785	0.031433	-0.011444	0.10422	0.011444	0.00885	-0.2652	0.25253	0.058899	0.021973	-0.079193	-0.21179	0.025024	0.17822	-0.03006	0.014954	-0.007782	-0.25787	-0.50522	-0.007172	0.002594
10.411	0.020752	-0.010529	-0.063324	-0.00824	-0.041809	0.030365	-0.1001	0.013733	0.1181	-0.056	-0.057678	-0.001831	0.046539	0.033722	0.031738	0.011749	0.023346	-0.27268	0.47134	0.028076	-0.011902	-0.083618	0.006409	0.121	0.13336	-0.027618	0.081024	-0.009308	0.030975	0.14847	0.000763	-0.007172
10.412	0.028229	-0.008545	-0.016174	-0.000305	0.050201	0.003662	-0.09201	0.011749	0.12543	-0.079803	-0.084076	-0.001678	0.057373	0.08255	-0.05188	0.009918	0.015869	-0.29831	1.0738	-0.12253	-0.05722	-0.053406	0.15396	0.25421	0.054321	0.011597	0.036316	-0.01358	0.35095	0.17548	-0.002441	-0.003357
10.413	0.017395	0.013885	0.035858	0.011597	0.050964	0.021973	-0.088959	0.011292	0.11658	-0.055237	-0.099182	0.012665	0.045624	0.040741	-0.078278	0.006714	0.005188	-0.34317	0.74005	-0.18036	-0.13458	-0.01358	0.14816	0.26703	-0.02121	0.015411	-0.19272	-0.010681	0.84717	0.10605	-0.004425	-0.003815
10.414	0.018311	-0.000916	-0.003815	0.008545	0.044708	0.028076	-0.094757	0.015411	0.10864	-0.048065	-0.07843	0.005493	0.033722	-0.032043	-0.076141	-0.002747	-0.007477	-0.37567	0.40482	-0.019226	-0.024261	-0.018616	0.13001	0.19241	-0.06958	0.007324	-0.1622	-0.014801	0.51224	-0.16602	-0.00473	-0.009766
10.415	0.016022	-0.007782	0.032806	-0.007019	0.020905	0.052948	-0.0914	0.011292	0.0914	-0.049133	-0.041656	0.004425	0.053864	-0.030823	-0.090637	0.02182	0.010223	-0.36972	0.61829	0.1091	0.045624	-0.11383	-0.092468	0.032654	-0.011292	-0.002899	0.2124	-0.016785	-0.65109	-0.49103	-0.007935	-0.014496
10.416	0.012054	-0.021362	0.068207	0.000763	-0.040436	0.056152	-0.083008	0.013733	0.074921	-0.051117	0.086212	0.006104	0.040131	-0.012512	-0.061646	0.012207	0.009613	-0.36636	0.33737	0.19272	0.028687	-0.13931	-0.22568	0.015259	0.12009	0.005951	0.56488	-0.014954	0.59891	-0.2478	0	-0.005798
10.417	0.009003	-0.011444	-0.058441	0.008698	-0.089417	0.053101	-0.098267	0.009003	0.061035	-0.036011	0.034943	0.005188	0.005798	-0.020752	0.12131	0.012207	0.002289	-0.3627	0.20523	0.043335	-0.048828	-0.088196	-0.13306	0.057983	0.15106	0.011292	0.70953	-0.00412	1.144	0.068054	-0.000458	-0.005493
10.418	0.008698	-0.010223	-0.10773	-0.006256	-0.029755	0.002747	-0.084076	0.00946	0.064545	-0.028534	-0.10773	0.005798	0	-0.047913	0.14358	0.007172	-0.032501	-0.34027	0.20752	-0.11826	-0.13855	-0.046997	-0.1149	-0.25742	0.13046	0.024414	0.74173	0.010376	0.000763	-0.032043	-0.002136	0.012054
10.419	0.027008	-0.018311	-0.16541	-0.004578	0.026855	0	-0.080719	0.011139	0.057983	-0.021667	-0.17059	0.009003	-0.001984	0.001526	0.08667	0.017548	-0.029602	-0.35446	-0.014648	-0.048523	-0.089111	-0.029755	0.13412	-0.25009	0.15167	0.03418	0.38971	-0.014496	-1.0835	-0.069733	0.001984	0.005646
10.42	0.020599	0.022583	-0.14938	0.007172	0.045776	0.033569	-0.082397	0.005951	0.06546	-0.039825	0.020294	0.009003	0.004578	0.040588	0.069275	0.019989	0.00946	-0.28732	-0.52246	0.1442	-0.096436	-0.03952	0.58807	-0.2446	0.054626	0.04776	-0.19745	-0.007172	-2.1733	0.36179	-0.00412	0.00351
10.421	0.024109	0.008087	-0.1416	0.018616	0.051575	0.079498	-0.090637	0.003967	0.055542	-0.060883	0.13611	0.001831	0.006409	0.025177	0.18448	0.020142	0.005646	-0.31204	0.024719	0.21316	0.01358	-0.12589	0.27802	-0.32715	0.031281	0.042114	-0.72464	-0.017548	-0.84717	0.13489	-0.001373	-0.001373
10.422	0.032806	-0.051422	-0.20584	0.015411	-0.022125	0.059052	-0.072937	0.010529	0.050354	-0.063934	0.19547	0.009766	0.020905	-0.01709	-0.049438	0.019073	0.005035	-0.31158	0.59753	0.13916	0.059814	-0.22064	-0.066223	-0.28549	0.052948	0.025177	-0.66742	-0.014343	0.3363	0.025635	-0.00473	0.000153
10.423	0.021973	-0.063782	-0.013428	0.019073	-0.058746	-0.006256	-0.066376	0.006409	0.054626	-0.072479	0.050354	0.003815	0.092468	-0.00946	-0.24796	0.017853	-0.012054	-0.36041	0.60226	-0.045013	0.007629	-0.21347	-0.16922	-0.15259	0.090027	0.024414	-0.56259	0.001373	3.3089	0.21316	0.003967	-0.005188
10.424	0.027161	-0.074158	0.18402	0.015869	-0.002594	0.014343	-0.070343	0.001068	0.05722	-0.047302	-0.01358	0.011139	0.079346	-0.019836	-0.1828	0.017242	-0.019531	-0.33905	-0.14404	-0.068054	-0.0177	-0.18188	-0.30075	-0.12329	0.00885	0.011597	-0.29724	0.007172	-0.64026	0.026703	-0.00351	-0.010834
10.425	0.030975	-0.13534	0.14526	-0.00061	0.006409	0.006866	-0.082855	0.009308	0.045166	-0.039063	0.023804	-0.00473	0.077209	-0.032959	0.06424	0.003204	-0.016022	-0.34271	-0.056763	-0.008545	-0.067139	-0.17288	-0.3418	-0.22018	-0.22079	-0.005035	-0.16937	-0.046844	-0.8577	-0.1799	-0.003662	-0.011292
10.426	0.022278	-0.13825	0.048828	0.014038	0.020142	0.024414	-0.085907	0.007935	0.047913	-0.031586	0.081482	0.006561	0.061188	-0.077362	-0.029602	0.00061	-0.012665	-0.30365	0.32745	0.031586	-0.07019	-0.077362	-0.14313	-0.24994	-0.14694	-0.003204	-0.13886	-0.27283	-0.0383	-0.24841	-0.00885	-0.015717
10.427	0.024261	-0.1471	0.052795	0.00473	0.004578	0.053711	-0.082245	0.003662	0.049133	-0.048981	0.049591	-0.003967	0.061798	-0.068512	-0.13977	0.016937	-0.003204	-0.34149	0.53207	0.035095	-0.011902	-0.078125	0.20874	-0.079498	0.11108	-0.002441	-0.068512	0.16556	-0.036621	0.25772	-0.002899	-0.009155
10.428	0.015564	-0.13214	0.037689	0.003204	0.010223	0.04425	-0.067596	0.00473	0.038147	-0.072632	0.006561	0.001221	0.025024	-0.084686	-0.16785	0.01358	-0.009766	-0.33737	-0.073242	-0.029297	0.03479	-0.086517	0.20248	0.20554	0.18066	-0.028534	-0.10941	0.12421	-0.10635	0.59586	-0.002289	-0.007935
10.429	0.010834	-0.15762	0.011597	0.013123	0.007324	0.045471	-0.079498	0.006561	0.051727	-0.044556	-0.005646	-0.001526	0.000763	-0.087891	-0.12268	0.009003	0.001526	-0.32898	-0.57861	-0.11139	0.023804	-0.027466	0.21835	0.28427	0.043793	-0.02594	-0.14099	-0.00946	0.15243	0.26901	0.001221	-0.000305
10.43	0.016632	-0.12543	-0.032959	-0.002441	0.006866	0.055084	-0.075836	0.012054	0.046844	-0.048065	0.011139	0.000153	-0.005341	-0.1088	-0.12589	0.010529	-0.004578	-0.29694	-0.45136	-0.14084	0.048981	0.032196	0.21301	0.34454	0.24445	-0.025787	0.071259	0.077209	-0.2507	0.30487	-0.006256	-0.008545
10.431	0.013733	-0.11429	-0.085297	-0.000916	0.024872	0.044556	-0.056458	0.011139	0.049133	-0.002136	0.014648	-0.005646	0.02121	-0.11566	-0.049591	0.012817	-0.016327	-0.31952	0.17441	-0.095367	0.073395	0.12329	0.00473	0.065765	0.3981	-0.018768	0.15121	-0.002899	-0.34927	0.17944	-0.003204	-0.010529
10.432	0.015411	-0.13947	-0.11963	0.00473	0.009155	0.093536	-0.078735	0.005188	0.049591	-0.001678	0.031891	-0.004883	0.013428	-0.10956	0.055542	0.006256	-0.009155	-0.23224	0.39597	-0.027466	0.069427	0.10986	-0.44647	-0.42313	0.18814	-0.010681	0.13245	-0.010223	-0.34882	-0.012817	-0.00473	-0.006409
10.433	0.015259	-0.11963	-0.063477	-0.00473	-0.05249	0.096283	-0.057831	0.010986	0.056458	-0.011902	0.029602	0.000916	0.003662	-0.094452	0.039978	0.006561	0.00473	-0.2681	0.21301	0.057983	0.043488	0.000305	-0.52231	-0.3244	0.045166	-0.007019	0.076447	0.059052	-0.99152	-0.36682	-0.003204	-0.008392
10.434	0.009308	-0.15549	-0.029449	-0.009766	-0.14236	0.081787	-0.055084	0.005188	0.043335	-0.006714	0.041809	-0.005188	0.014038	-0.10284	0.040588	0.019073	0.01236	-0.32074	0.063934	0.14832	0.03952	-0.19547	-0.43945	-0.14084	0.14252	0.001831	-0.10361	0.043793	-0.71335	-0.34241	-0.003204	-0.012817
10.435	0.0177	-0.13321	-0.090179	0.009308	-0.15533	0.06424	-0.050812	0.010071	0.063629	-0.016937	0.026093	-0.000763	0.028076	-0.09491	0.041962	0.010986	0.030518	-0.33005	-0.19898	0.13412	0.031128	-0.19775	-0.12543	-0.023193	0.13779	0.018921	-0.18814	0.00473	1.2537	-0.15228	-0.003052	-0.005646
10.436	0.003967	-0.11704	-0.070801	0.030212	-0.00946	0.073242	-0.050812	0.011597	0.055237	-0.020142	-0.00473	-0.003052	0.023041	-0.089264	0.052185	0.016327	0.03479	-0.23636	1.0748	0.028839	-0.005493	-0.14435	-0.28702	-0.063934	0.24933	0.023346	-0.2298	0.007782	0.50446	0.046387	-0.001373	-0.001221
10.437	0.014954	-0.15839	0.007782	0.034637	0.037384	0.078125	-0.042572	0.009766	0.056915	-0.033112	-0.001678	-0.009308	0.072327	-0.10284	0.053558	0.017395	0.02182	-0.24719	0.38528	-0.040741	-0.06073	-0.12375	-0.36621	-0.071411	0.29572	0.022736	-0.26382	0.02243	0.28427	0.042114	-0.002441	-0.003357
10.438	0.028534	-0.17807	-0.003357	0.002289	0.057678	0.069275	-0.052643	0.011139	0.065002	-0.024261	-0.008698	-0.00824	0.11093	-0.098877	0.02655	0.025482	0.035095	-0.26733	-0.080872	-0.27115	-0.14236	-0.1297	-0.25772	-0.023956	0.26657	0.012054	0.22278	0.002594	-1.7497	0.002747	-0.003052	-0.007019
